# xmcd CD database file
#
# Track frame offsets:
#	150
#	14740
#	32128
#	56071
#	84264
#	101786
#	119796
#	138598
#	159204
#	187644
#
# Disc length: 2706 seconds
#
# Revision: 0
# Processed by: cddbd v1.4PL0 Copyright (c) Steve Scherf et al.
# Submitted via: CDex 1.50
#
DISCID=820a900a
DTITLE=Dogskin suit - Diggin' Up the Yard
DYEAR=1999
DGENRE=Blues
TTITLE0=I found out
TTITLE1=Get it right
TTITLE2=Too fast to love
TTITLE3=You don't dry anymore
TTITLE4=Struggle and strive
TTITLE5=Go man go
TTITLE6=Riley's lament
TTITLE7=Dogbone boogie
TTITLE8=See whatcha dun
TTITLE9=Trukk's song
EXTD=YEAR: 1999
EXTT0=
EXTT1=
EXTT2=
EXTT3=
EXTT4=
EXTT5=
EXTT6=
EXTT7=
EXTT8=
EXTT9=
PLAYORDER=
